<svg width="689" height="408" viewBox="0 0 689 408" fill="none" xmlns="http://www.w3.org/2000/svg">
<path opacity="0.3" d="M630.089 335.147C634.994 332.626 638.408 328.83 641.588 324.473C644.704 320.207 641.72 307.99 640.847 303.507C637.767 287.689 634.066 271.988 630.458 256.239C628.035 245.656 624.754 235.441 621.926 224.983C618.877 213.707 615.867 202.059 611.168 191.437C608.992 186.52 607.678 181.168 605.603 176.189C603.972 172.283 601.681 168.817 599.666 165.134C597.649 161.448 596.31 157.265 594.101 153.698C579.841 130.673 555.926 118.603 536.226 101.475C523.251 90.1952 515.031 73.9512 502.464 62.2122C499.54 59.4822 496.22 57.6992 492.816 55.7322C478.453 47.4312 462.782 41.0072 446.07 40.1032C440.143 39.7822 434.168 40.1812 428.262 40.4842C423.858 40.7102 419.66 40.5352 415.278 41.2472C398.701 43.9362 382.423 48.8712 365.563 48.8712C354.455 48.8712 344.447 45.1972 334.027 41.6282C331.525 40.7712 329.143 39.2892 326.608 38.5792C317.085 35.9112 307.373 33.8542 297.67 31.7182C289.337 29.8832 280.642 27.8472 272.071 28.2872C258.091 29.0052 242.819 30.1692 229.775 35.5302C209.884 43.7052 190.916 55.1182 175.239 70.2192C163.867 81.1732 154.827 95.0082 147.043 108.719C138.112 124.451 130.028 140.838 122.928 157.511C121.243 161.468 120.541 165.792 118.847 169.709C113.651 181.721 110.482 194.698 106.233 207.066C101.154 221.853 96.5647 236.931 88.4247 250.521C76.4747 270.474 58.6737 284.912 43.9047 301.984C43.0587 302.96 42.6187 304.244 42.0497 305.415C39.7077 310.228 35.4067 315.833 34.6297 321.425C34.0667 325.474 31.5097 331.83 34.8147 334.576C35.2387 334.929 35.6747 335.256 36.1177 335.568H628.719C629.231 335.465 629.718 335.337 630.089 335.147Z" fill="#45969B"/>
<path opacity="0.5" d="M231.698 72.0192C229.772 66.7832 225.984 61.8682 221.532 58.5972C214.125 53.1562 204.453 52.6132 197.113 47.0572C190.358 41.9462 185.678 34.3642 180.142 27.9912C173.672 20.5442 162.734 14.1892 153.083 12.7582C149.542 12.2332 146.175 12.7982 142.68 13.2412C128.927 14.9862 119.289 24.7252 109.869 34.2662C105.311 38.8832 102.088 44.8762 96.7874 48.7422C91.9384 52.2792 86.4724 54.5332 81.2224 57.2402C78.9454 58.4142 76.4944 59.2162 74.3924 60.7492C70.3334 63.7102 67.4434 67.7072 64.8804 72.0402C64.3154 72.9952 63.5624 74.3002 62.8584 75.7252H233.054C232.762 74.3582 232.016 72.8852 231.698 72.0192Z" fill="#45969B"/>
<path d="M278.161 49.2842H159.845C159.812 49.2842 159.781 49.2692 159.759 49.2442C159.737 49.2192 159.727 49.1862 159.732 49.1532C159.778 48.8002 159.837 48.4552 159.892 48.1342C159.935 47.8832 159.975 47.6472 160.005 47.4342C160.631 42.9502 162.129 38.2562 164.458 33.4832C168.71 24.7632 173.741 17.3932 179.411 11.5792C182.092 8.82918 184.987 6.00018 188.308 4.29818C192.833 1.97918 198.124 0.526179 203.608 0.0971788C208.056 -0.247821 212.595 0.332177 216.396 1.73518C223.536 4.37218 229.401 9.22318 235.073 13.9152C238.615 16.8452 242.277 19.8742 246.224 22.3472C249.175 24.1972 252.824 25.1712 256.352 26.1122C257.609 26.4482 258.797 26.7642 259.954 27.1192C267.571 29.4532 273.912 35.8782 276.505 43.8872C276.68 44.4292 276.901 45.0092 277.135 45.6232C277.574 46.7732 278.027 47.9632 278.277 49.1442C278.284 49.1782 278.276 49.2132 278.254 49.2402C278.229 49.2682 278.196 49.2842 278.161 49.2842ZM159.976 49.0532H278.018C277.766 47.9352 277.334 46.8022 276.916 45.7052C276.681 45.0882 276.458 44.5052 276.282 43.9572C273.713 36.0192 267.429 29.6502 259.883 27.3382C258.73 26.9852 257.545 26.6692 256.29 26.3342C252.745 25.3882 249.079 24.4102 246.099 22.5422C242.139 20.0602 238.471 17.0262 234.924 14.0922C229.267 9.41318 223.417 4.57418 216.314 1.95118C212.543 0.559179 208.039 -0.0198211 203.624 0.326179C198.171 0.752179 192.91 2.19618 188.411 4.50218C185.121 6.18918 182.242 9.00218 179.574 11.7382C173.921 17.5352 168.905 24.8852 164.663 33.5832C162.345 38.3352 160.854 43.0052 160.231 47.4662C160.201 47.6812 160.161 47.9192 160.118 48.1722C160.07 48.4522 160.019 48.7492 159.976 49.0532Z" fill="#51B6BB"/>
<g opacity="0.3">
<path d="M27.4404 335.569C48.6324 343.605 66.1664 360.354 86.5574 370.888C126.955 391.759 174.723 386.784 219.746 391.098C249.632 393.961 278.985 401.108 308.799 404.688C392.912 414.789 477.514 396.303 560.288 377.922C590.931 371.118 621.962 364.174 649.927 349.616C656.947 345.962 663.99 341.541 669.128 335.568H27.4404V335.569Z" fill="#2D965F"/>
</g>
<path opacity="0.5" d="M638.114 91.5493C637.315 85.8333 635.353 80.1713 632.832 75.0033C628.203 65.5103 622.395 56.4993 615.079 48.9963C611.994 45.8313 608.48 42.3883 604.537 40.3663C598.936 37.4953 592.615 35.8723 586.398 35.3863C581.399 34.9953 576 35.5723 571.253 37.3253C557.501 42.4043 548.046 54.1543 535.815 61.8193C531.054 64.8033 524.752 65.8853 519.458 67.5073C510.293 70.3153 502.864 78.1053 499.87 87.3553C499.276 89.1943 498.222 91.4423 497.766 93.5923H638.438C638.339 92.8433 638.195 92.1263 638.114 91.5493Z" fill="#45969B"/>
<path d="M84.9228 220.234C83.8818 220.234 82.9098 219.447 82.0408 218.744C81.7348 218.497 81.4468 218.263 81.1618 218.066C76.6578 214.942 72.6058 211.169 68.7728 206.533C55.4278 190.388 46.9268 170.023 44.1898 147.641C43.2108 139.638 43.1058 131.912 43.1388 124.756C43.1438 123.716 43.2438 122.677 43.3408 121.672C43.4168 120.884 43.4948 120.069 43.5268 119.263C43.5268 119.251 43.5258 119.227 43.5238 119.193C43.5108 118.878 43.4808 118.139 43.8668 118.089C44.6788 117.988 46.5988 119.045 48.1798 119.981L48.3648 120.09C53.0208 122.819 57.2278 126.908 61.1378 130.862C64.8248 134.591 68.6778 138.613 71.7068 143.169C77.0578 151.214 81.6218 160.45 86.0688 172.232C88.6278 179.011 90.5998 185.661 91.9298 191.998L92.0818 192.718C92.7048 195.658 93.3478 198.699 93.2278 201.757C93.1418 203.959 92.4698 205.754 91.6658 207.708C91.4688 208.187 91.3538 208.73 91.2428 209.255C91.1498 209.695 91.0528 210.151 90.9088 210.573C90.6518 211.323 90.2848 212.032 89.9308 212.718C89.7338 213.098 89.5308 213.491 89.3498 213.885C89.2498 214.102 89.1288 214.382 88.9908 214.702C88.1468 216.658 86.7338 219.932 85.2928 220.201C85.1678 220.223 85.0448 220.234 84.9228 220.234ZM85.2498 219.974C86.5698 219.728 88.0068 216.399 88.7788 214.61C88.9178 214.288 89.0388 214.006 89.1398 213.788C89.3238 213.389 89.5278 212.994 89.7248 212.611C90.0758 211.933 90.4378 211.231 90.6898 210.497C90.8298 210.088 90.9248 209.64 91.0168 209.205C91.1308 208.669 91.2478 208.116 91.4528 207.618C92.2478 205.686 92.9128 203.91 92.9978 201.746C93.1168 198.716 92.4758 195.69 91.8558 192.763L91.7038 192.042C90.3758 185.717 88.4078 179.079 85.8528 172.31C81.4108 160.544 76.8548 151.324 71.5138 143.293C68.4938 138.751 64.8048 134.897 60.9738 131.022C57.0738 127.078 52.8798 123.001 48.2478 120.286L48.0618 120.177C47.1518 119.639 44.7338 118.205 43.8958 118.316C43.8538 118.321 43.7218 118.399 43.7538 119.182C43.7548 119.225 43.7568 119.256 43.7558 119.271C43.7238 120.084 43.6458 120.902 43.5688 121.693C43.4728 122.693 43.3728 123.727 43.3688 124.756C43.3358 131.905 43.4408 139.622 44.4178 147.612C47.1498 169.951 55.6328 190.275 68.9508 206.386C72.7688 211.005 76.8058 214.764 81.2928 217.876C81.5848 218.079 81.8768 218.314 82.1858 218.565C83.1628 219.356 84.1768 220.176 85.2498 219.974Z" fill="#45969B"/>
<path d="M90.043 211.68C90.016 211.68 89.989 211.671 89.968 211.652C87.812 209.786 86.082 207.484 84.408 205.257L84.269 205.072C81.293 201.112 78.377 196.584 75.602 191.611C71.419 184.116 67.799 176.338 64.297 168.816C62.244 164.405 60.42 160.412 58.896 156.221C57.637 152.759 56.56 149.191 55.65 146.119C55.472 145.519 55.307 144.892 55.147 144.286C54.804 142.984 54.449 141.637 53.934 140.411C53.909 140.352 53.937 140.285 53.995 140.261C54.056 140.236 54.121 140.264 54.145 140.323C54.666 141.564 55.023 142.918 55.368 144.228C55.527 144.832 55.692 145.457 55.869 146.054C56.778 149.123 57.853 152.687 59.11 156.142C60.631 160.325 62.453 164.312 64.505 168.719C68.004 176.237 71.623 184.011 75.802 191.498C78.572 196.462 81.482 200.982 84.451 204.933L84.59 205.118C86.257 207.335 87.979 209.627 90.116 211.477C90.164 211.519 90.169 211.591 90.128 211.639C90.108 211.667 90.076 211.68 90.043 211.68Z" fill="#45969B"/>
<path d="M609.051 217.28C607.336 216.472 606.033 214.865 604.928 213.356C601.217 208.295 599.696 204.359 599.111 197.803C597.518 179.958 604.882 163.071 613.949 148.326C616.573 144.059 619.236 139.838 622.021 135.686C622.297 135.276 624.623 131.644 624.717 131.617C625.027 131.526 628.229 135.85 628.44 136.204C631.503 141.345 633.672 146.981 635.281 152.767C637.178 159.586 636.994 166.373 636.869 173.385C636.67 184.771 633.741 196.306 628.366 206.254C625.958 210.708 620.544 218.811 614.943 219.155C613.211 219.261 610.603 218.013 609.051 217.28Z" fill="#2D965F"/>
<path d="M610.457 217.885C610.429 217.885 610.399 217.874 610.377 217.852C610.331 217.808 610.33 217.735 610.374 217.689C610.937 217.108 611.291 215.927 611.605 214.885C611.753 214.391 611.893 213.924 612.044 213.556C613.292 210.508 614.426 207.198 615.513 203.438C618.173 194.225 619.494 184.809 620.525 176.005C620.874 173.008 621.123 169.879 621.265 166.702C621.283 166.318 621.29 165.916 621.299 165.506C621.324 164.21 621.352 162.87 621.657 161.702C621.674 161.641 621.74 161.607 621.798 161.62C621.859 161.636 621.896 161.699 621.88 161.761C621.581 162.902 621.554 164.229 621.528 165.511C621.52 165.923 621.511 166.327 621.495 166.713C621.351 169.895 621.102 173.03 620.753 176.032C619.721 184.845 618.399 194.273 615.734 203.502C614.645 207.271 613.508 210.588 612.257 213.644C612.109 214.002 611.971 214.464 611.824 214.952C611.504 216.019 611.14 217.229 610.54 217.85C610.518 217.874 610.488 217.885 610.457 217.885Z" fill="black"/>
<path d="M509.512 332.479C509.512 318.926 505.84 305.958 502.834 292.836C499.898 280.008 495.36 268.345 488.737 257.004C485.964 252.255 482.493 248.287 479.092 244.043C471.812 234.964 463.697 226.054 453.493 220.409C449.54 218.223 445.206 215.644 440.878 214.31C438.59 213.604 433.013 213.853 431.974 212.785C431.031 211.818 431.216 208.345 430.861 207.067C429.182 201.03 427.779 194.875 426.409 188.77C425.565 185.01 423.979 181.336 422.698 177.715C419.009 167.29 415.044 157.117 408.229 148.363C398.936 136.429 384.967 127.305 370.015 125.11C364.277 124.268 358.734 123.966 352.948 123.966C350.861 123.966 345.886 124.72 344.788 123.966C342.715 122.547 341.291 118.759 339.592 116.723C335.389 111.684 331.554 106.178 326.98 101.475C325.79 100.253 324.183 99.5417 322.898 98.4247C312.612 89.4827 299.6 81.2387 285.797 79.7467C279.659 79.0827 273.017 79.8127 266.876 80.1277C260.886 80.4357 255.024 82.2717 249.44 84.3207C245.408 85.8007 241.037 86.9217 237.197 88.8947C224.796 95.2657 213.208 105.635 204.177 116.341C200.583 120.602 197.607 125.581 194.902 130.445C193.829 132.375 191.89 137.448 191.192 137.688C190.606 137.889 185.377 136.004 184.514 135.782C180.035 134.631 175.436 133.13 170.787 132.732C152.774 131.19 134.082 136.292 118.476 145.311C115.085 147.271 111.117 149.302 108.088 151.791C104.928 154.388 100.926 158.318 98.4288 161.526C95.8398 164.85 93.8448 168.301 91.7638 171.994C88.8898 177.095 87.4418 183.059 85.0858 188.385C82.1838 194.944 79.6008 201.628 77.6658 208.588C76.3108 213.46 74.7068 219.142 74.3268 224.216C74.2598 225.111 74.7518 234.806 74.6978 234.89C74.0428 235.9 66.4618 237.596 65.0518 238.321C61.8868 239.948 58.0518 240.958 55.0348 242.895C52.1428 244.753 49.1118 247.141 46.5018 249.374C42.9688 252.4 40.4108 256.105 37.9688 260.048C28.1118 275.964 24.4488 291.318 26.4678 309.985C27.4518 319.088 27.9138 327.537 32.8268 335.564H509.641C509.576 334.502 509.512 333.46 509.512 332.479Z" fill="#45969B"/>
<path d="M669.099 322.57C669.099 310.686 668.945 298.918 667.999 287.12C666.788 272.029 665.546 256.207 657.002 243.283C649.657 232.175 638.985 221.97 626.575 217.361C622.868 215.985 619.126 214.893 615.21 214.312C613.797 214.102 610.783 215.054 609.711 214.312C608.474 213.454 605.402 204.563 604.947 203.258C602.267 195.592 597.666 188.287 592.85 181.911C581.357 166.702 564.077 152.402 545.194 149.129C540.523 148.32 535.614 148.748 530.898 148.748C521.216 148.748 511.292 150.078 502.302 154.085C483.197 162.6 470.071 180.353 457.213 196.397C453.76 200.708 447.386 213.705 446.948 213.932C446.554 214.137 442.881 211.817 442.549 211.645C438.574 209.578 434.379 208.482 430.087 207.452C416.987 204.308 400.714 204.246 388.297 210.502C351.435 229.072 345.813 257.516 345.405 258.151C345.341 258.252 336.413 259.563 335.875 259.674C327.537 261.409 318.659 264.369 311.314 268.822C290.573 281.404 275.025 309.637 273.597 335.571H669.129C669.129 335.571 669.099 326.414 669.099 322.57Z" fill="#52BA86"/>
<path d="M307.75 170.525H58.9502V335.567H307.75V170.525Z" fill="#51B6BB"/>
<path d="M268.258 181.684H71.3604V324.409H268.258V181.684Z" fill="white"/>
<path d="M240.176 264.881C222.523 261.492 204.13 262.02 186.701 266.413C145.054 276.912 111.496 308.226 71.3604 323.048V324.409H268.258V273.151C259.068 269.682 249.75 266.718 240.176 264.881Z" fill="#2D965F"/>
<path d="M258.879 324.409C256.667 322.981 254.486 321.513 252.339 320.015C234.744 307.739 218.658 293.332 200.512 281.886C177.94 267.649 152.358 258.21 125.949 254.374C107.845 251.744 88.4703 252.11 71.3613 257.895V324.409H258.879Z" fill="#52BA86"/>
<path d="M124.455 236.286C135.348 236.286 144.177 227.456 144.177 216.564C144.177 205.672 135.348 196.842 124.455 196.842C113.563 196.842 104.733 205.672 104.733 216.564C104.733 227.456 113.563 236.286 124.455 236.286Z" fill="#EFAC35"/>
<path d="M306.582 282.288C303.819 263.814 299.273 245.879 290.971 229.145C287.56 222.267 284.012 215.343 280.069 208.779C279.098 207.164 278.131 205.481 276.982 203.988C276.733 203.664 275.979 202.404 275.495 202.323C275.305 202.292 274.533 203.496 274.485 203.572C273.609 204.981 272.955 206.999 272.369 208.56C269.392 216.485 266.962 224.507 265.924 233.025C264.828 242.011 263.986 250.962 264.595 260.037C265.137 268.089 266.826 276.076 268.922 283.84C272.213 296.035 275.797 307.061 282.055 318.016C285.905 324.754 290.724 330.376 296.749 335.118C296.912 335.246 297.12 335.398 297.357 335.563H327.485C322.678 321.23 307.386 287.658 306.582 282.288Z" fill="#2D965F"/>
<path d="M311.212 335.676C311.17 335.676 311.129 335.653 311.109 335.612C308.363 330.176 303.964 320.979 300.428 313.59C298.131 308.789 296.317 304.996 295.565 303.505C291.858 296.154 288.815 287.994 285.698 277.045C283.745 270.184 282.44 264.418 281.589 258.902C280.882 254.323 280.406 249.245 280.137 243.376C280.108 242.74 280.042 242.066 279.973 241.353C279.789 239.456 279.598 237.493 280.034 235.801C280.05 235.738 280.109 235.698 280.174 235.718C280.235 235.734 280.273 235.796 280.256 235.858C279.83 237.511 280.019 239.454 280.201 241.332C280.271 242.048 280.336 242.725 280.366 243.367C280.636 249.227 281.11 254.298 281.816 258.868C282.665 264.376 283.969 270.132 285.92 276.984C289.031 287.918 292.069 296.066 295.77 303.403C296.523 304.896 298.338 308.69 300.636 313.493C304.171 320.882 308.57 330.077 311.314 335.511C311.343 335.568 311.32 335.637 311.263 335.665C311.247 335.672 311.229 335.676 311.212 335.676Z" fill="black"/>
<path d="M282.102 335.677H266.599L266.571 335.659C264.151 334.132 261.673 332.243 259.206 330.045C245.586 317.9 236.559 299.806 235.059 281.643C234.782 278.293 234.542 274.711 234.659 271.212C234.795 267.221 235.046 264.169 235.473 261.316C235.488 261.22 235.504 261.063 235.524 260.868C235.647 259.695 235.811 258.418 236.206 258.105C236.376 257.973 236.728 258.142 237.362 258.525C237.444 258.575 237.508 258.614 237.539 258.628C239.043 259.378 240.402 260.494 241.717 261.573L242.086 261.876C247.592 266.385 252.125 272.175 256.508 277.774C257.096 278.524 257.681 279.272 258.268 280.015C261.568 284.197 264.498 287.996 266.938 292.151C270.933 298.953 273.805 306.371 276.583 313.543L277.199 315.132C278.763 319.172 279.964 322.913 280.768 326.252C281.419 328.962 281.865 332.091 282.095 335.552L282.102 335.677ZM266.665 335.447H281.856C281.625 332.048 281.183 328.973 280.543 326.309C279.741 322.979 278.543 319.248 276.983 315.218L276.367 313.628C273.593 306.463 270.724 299.055 266.738 292.27C264.305 288.127 261.38 284.334 258.085 280.16C257.499 279.417 256.913 278.669 256.325 277.918C251.949 272.328 247.425 266.549 241.938 262.056L241.569 261.753C240.264 260.682 238.915 259.574 237.436 258.836C237.404 258.821 237.333 258.778 237.241 258.723C236.728 258.412 236.417 258.263 236.338 258.292C235.995 258.565 235.83 260.138 235.751 260.893C235.73 261.093 235.713 261.255 235.698 261.352C235.272 264.196 235.022 267.24 234.886 271.221C234.77 274.708 235.01 278.283 235.286 281.624C236.781 299.73 245.78 317.768 259.357 329.874C261.805 332.055 264.264 333.93 266.665 335.447Z" fill="black"/>
<path d="M274.218 335.679C274.187 335.679 274.157 335.666 274.134 335.642C271.482 332.809 269.074 329.531 266.867 326.411C259.474 315.95 253.397 304.746 248.806 293.107C247.517 289.839 246.312 286.196 245.12 281.966C244.993 281.513 244.894 280.968 244.789 280.39C244.592 279.304 244.369 278.074 243.904 277.316C243.871 277.261 243.888 277.191 243.942 277.158C243.996 277.125 244.067 277.141 244.1 277.195C244.587 277.99 244.814 279.244 245.015 280.349C245.119 280.921 245.217 281.461 245.341 281.904C246.531 286.126 247.734 289.762 249.019 293.023C253.603 304.644 259.671 315.833 267.053 326.278C269.256 329.391 271.658 332.662 274.301 335.486C274.345 335.532 274.342 335.605 274.296 335.648C274.275 335.669 274.247 335.679 274.218 335.679Z" fill="black"/>
<path d="M59.346 306.076C59.148 306.044 58.884 305.941 58.842 305.738C58.693 305.011 58.857 304.252 58.82 303.51C58.761 302.317 58.487 301.082 58.264 299.912C57.312 294.929 55.649 290.147 53.86 285.438C49.798 274.744 43.254 265.458 37.422 255.779C33.446 249.181 29.148 242.64 27.781 234.842C27.261 231.875 27.148 228.942 27.483 225.945C28.121 220.231 32.665 213.208 38.96 214.026C40.615 214.241 42.327 214.745 43.842 215.458C45.855 216.405 47.624 217.943 49.298 219.398C53.817 223.328 57.375 227.843 60.061 233.275C67.253 247.821 72.33 263.678 75.526 279.666C76.031 282.195 76.275 284.765 76.779 287.284C77.095 288.864 77.845 291.104 77.59 292.708C77.415 293.812 76.687 294.635 76.012 295.456C73.445 298.574 69.944 300.287 66.56 302.303C65.705 302.813 64.666 303.178 63.874 303.784C62.653 304.723 60.902 306.343 59.346 306.076Z" fill="#2D965F"/>
<path d="M70.4923 300.018C70.4423 300.018 70.3973 299.986 70.3823 299.935C69.9513 298.48 69.6773 296.919 69.4123 295.41C69.2213 294.319 69.0233 293.191 68.7683 292.119C67.5003 286.794 66.3203 282.399 65.0553 278.288C61.5563 266.921 57.4193 256.471 52.7603 247.227C50.1063 241.961 46.9953 236.882 43.9863 231.97L43.9573 231.923C43.9243 231.868 43.9413 231.798 43.9953 231.765C44.0503 231.732 44.1193 231.748 44.1533 231.802L44.1823 231.85C47.1943 236.766 50.3073 241.85 52.9653 247.123C57.6303 256.378 61.7723 266.84 65.2753 278.219C66.5423 282.335 67.7233 286.736 68.9923 292.066C69.2493 293.144 69.4473 294.276 69.6393 295.371C69.9033 296.874 70.1753 298.428 70.6033 299.871C70.6213 299.932 70.5863 299.995 70.5253 300.014C70.5143 300.016 70.5033 300.018 70.4923 300.018Z" fill="black"/>
<path d="M35.1306 315.659C34.4906 316.029 34.5196 314.279 34.3246 313.552C33.9446 312.132 33.6026 310.777 33.0366 309.419C31.3566 305.392 29.5966 301.449 27.1206 297.848C19.3586 286.553 5.9136 279.199 1.2696 265.73C-0.446402 260.754 -1.1184 253.966 3.8466 250.494C10.8256 245.614 18.9756 252.197 24.1536 256.7C34.0406 265.294 39.9266 277.802 45.4026 289.535C47.6726 294.4 49.4906 299.497 50.6616 304.754C50.9406 306.006 51.3936 307.475 51.3586 308.776C51.3176 310.299 48.2626 310.947 47.2786 311.354C44.1326 312.663 40.6896 312.993 37.5106 314.314C36.6876 314.653 35.8976 315.213 35.1306 315.659Z" fill="#52BA86"/>
<path d="M43.1681 312.655C43.1121 312.655 43.0631 312.614 43.0541 312.557C42.9121 311.627 42.4751 310.753 42.0521 309.909C41.8381 309.481 41.6161 309.038 41.4341 308.591C40.4031 306.058 39.2911 303.383 38.0341 300.413C32.4631 287.252 22.7111 273.788 11.2811 263.472C11.2341 263.43 11.2301 263.357 11.2731 263.31C11.3151 263.262 11.3881 263.258 11.4361 263.302C22.8911 273.639 32.6631 287.133 38.2471 300.323C39.5041 303.294 40.6171 305.97 41.6481 308.505C41.8271 308.943 42.0461 309.382 42.2591 309.807C42.6901 310.667 43.1351 311.558 43.2821 312.523C43.2911 312.587 43.2481 312.645 43.1861 312.654C43.1801 312.654 43.1741 312.655 43.1681 312.655Z" fill="black"/>
<path d="M159.288 311.895C146.245 304.156 127.61 308.119 126.269 308.464C125.722 308.605 122.954 303.838 122.559 303.128C119.23 297.142 113.614 290.579 107.719 287.118C98.1129 281.477 85.8319 278.522 75.0709 282.544C67.7899 285.262 60.6509 290.586 55.4079 296.267C50.8109 301.245 49.2959 306.357 48.7299 306.939C48.2629 307.42 43.5939 305.512 37.2289 308.465C27.9519 312.768 23.5749 319.141 19.3899 327.74C18.3049 329.971 17.5869 332.745 17.2119 335.569H178.73C174.369 325.996 168.275 317.228 159.288 311.895Z" fill="#45969B"/>
<path d="M447.597 266.469H387.774L369.345 335.569H466.026L447.597 266.469Z" fill="#45969B"/>
<path d="M562.508 282.534H272.863C263.067 282.534 255.127 274.593 255.127 264.798V96.4606C255.127 86.6646 263.068 78.7246 272.863 78.7246H562.508C572.303 78.7246 580.244 86.6656 580.244 96.4606V264.797C580.244 274.593 572.303 282.534 562.508 282.534Z" fill="#F9F3EC"/>
<path d="M272.863 286.823H562.508C572.304 286.823 580.245 278.882 580.245 269.086V251.062H255.126V269.086C255.126 278.882 263.067 286.823 272.863 286.823Z" fill="#51B6BB"/>
<path d="M426.679 271.099C427.851 266.135 424.778 261.161 419.814 259.989C414.85 258.817 409.876 261.891 408.704 266.854C407.532 271.818 410.606 276.792 415.57 277.964C420.533 279.136 425.507 276.062 426.679 271.099Z" fill="white"/>
<path d="M469.845 223.159H365.525C362.763 223.159 360.525 220.92 360.525 218.159V195.777C360.525 193.016 362.763 190.777 365.525 190.777C368.287 190.777 370.525 193.016 370.525 195.777V213.159H464.845V195.777C464.845 193.016 467.083 190.777 469.845 190.777C472.607 190.777 474.845 193.016 474.845 195.777V218.159C474.845 220.92 472.607 223.159 469.845 223.159Z" fill="#51B6BB"/>
<path d="M417.686 200.893C414.924 200.893 412.686 198.654 412.686 195.893V126.822C412.686 124.061 414.924 121.822 417.686 121.822C420.448 121.822 422.686 124.061 422.686 126.822V195.893C422.686 198.654 420.448 200.893 417.686 200.893Z" fill="#51B6BB"/>
<path d="M455.021 163.558C453.742 163.558 452.461 163.07 451.486 162.094L417.685 128.294L383.885 162.094C381.934 164.046 378.766 164.046 376.815 162.094C374.862 160.141 374.862 156.975 376.815 155.023L414.15 117.687C415.088 116.749 416.359 116.223 417.685 116.223C419.011 116.223 420.283 116.75 421.22 117.687L458.556 155.023C460.509 156.976 460.509 160.142 458.556 162.094C457.58 163.07 456.3 163.558 455.021 163.558Z" fill="#51B6BB"/>
<path d="M604.149 318.746C602.316 318.746 600.289 318.333 597.987 317.517C597.945 317.502 593.812 315.838 593.776 315.642C593.738 315.451 593.794 315.256 593.844 315.085L593.867 315.006C594.196 313.865 594.267 312.593 594.338 311.364C594.393 310.402 594.449 309.408 594.627 308.469C595.377 304.525 596.592 300.285 598.24 295.868C606.888 272.718 621.123 254.333 638.323 244.1C645.892 239.597 653.921 237.335 660.32 237.911C663.371 238.182 666.784 238.778 668.972 241.141C673.944 246.51 666.412 253.796 662.365 257.71C662.079 257.986 661.812 258.244 661.572 258.482C661.227 258.821 660.882 259.156 660.536 259.491C659.94 260.068 659.325 260.666 658.728 261.268C656.492 263.521 654.197 265.772 651.977 267.948C646.172 273.639 640.169 279.524 634.783 285.917C630.737 290.721 626.501 296.213 622.193 302.242C621.583 303.096 620.975 303.969 620.364 304.844C617.738 308.612 615.022 312.506 611.71 315.605C609.457 317.715 607.044 318.746 604.149 318.746ZM593.995 315.557C594.378 315.773 597.619 317.141 598.063 317.3C603.907 319.37 607.942 318.813 611.553 315.439C614.847 312.357 617.556 308.472 620.175 304.715C620.786 303.837 621.395 302.965 622.005 302.111C626.316 296.076 630.557 290.579 634.607 285.77C640 279.37 646.007 273.48 651.817 267.786C654.036 265.61 656.33 263.36 658.564 261.108C659.163 260.504 659.779 259.906 660.375 259.328C660.72 258.993 661.066 258.658 661.409 258.32C661.651 258.083 661.918 257.824 662.204 257.548C666.194 253.689 673.622 246.504 668.804 241.3C666.667 238.993 663.306 238.409 660.3 238.142C653.928 237.575 645.968 239.822 638.44 244.3C621.286 254.506 607.085 272.85 598.455 295.95C596.813 300.355 595.6 304.582 594.853 308.514C594.677 309.437 594.622 310.424 594.567 311.379C594.497 312.62 594.424 313.903 594.088 315.07L594.065 315.15C594.025 315.288 593.984 315.429 593.995 315.557Z" fill="#2D965F"/>
<path d="M601.39 318.498C601.383 318.498 601.377 318.497 601.37 318.496C601.307 318.485 601.266 318.426 601.276 318.363C601.524 316.947 602.125 315.526 602.705 314.152C602.986 313.487 603.276 312.799 603.515 312.137C605.453 306.754 607.645 301.715 610.032 297.159C619.394 279.29 629.356 266.16 640.488 257.018C642.342 255.496 644.332 254.153 646.255 252.855C647.286 252.16 648.353 251.44 649.388 250.699C649.44 250.662 649.512 250.674 649.549 250.725C649.586 250.777 649.573 250.849 649.522 250.886C648.484 251.628 647.416 252.349 646.384 253.045C644.465 254.34 642.481 255.68 640.635 257.195C629.528 266.316 619.583 279.423 610.236 297.265C607.855 301.81 605.667 306.839 603.733 312.213C603.493 312.881 603.201 313.571 602.919 314.238C602.344 315.6 601.748 317.01 601.505 318.399C601.494 318.459 601.445 318.498 601.39 318.498Z" fill="#2D965F"/>
<path d="M619.008 325.327C618.487 324.455 619.514 323.326 619.979 322.421C620.413 321.571 620.97 320.794 621.452 319.974C624.093 315.471 627.031 311.047 630.473 307.138C633.164 304.085 636.148 301.287 639.168 298.579C641.387 296.593 643.754 294.84 646.194 293.152C654.899 287.131 665.873 281.842 676.533 284.711C680.563 285.796 684.938 288.228 686.919 292.162C690.601 299.477 686.809 304.253 680.491 307.553C676.077 309.86 671.321 311.208 666.624 312.729C659.992 314.876 653.491 317.545 647.279 320.771C642.861 323.065 638.629 325.786 634.472 328.537C632.308 329.971 629.588 331.761 626.967 332.091C623.64 332.509 620.508 327.834 619.008 325.327Z" fill="#51B6BB"/>
<path d="M621.79 329.168C621.772 329.168 621.754 329.163 621.737 329.154C621.68 329.125 621.659 329.055 621.688 329C624.281 324.018 628.736 319.869 633.165 316.129C642.894 307.906 652.949 302.212 663.051 299.202L663.422 299.092C666.2 298.264 669.072 297.407 671.984 297.115C672.049 297.096 672.103 297.155 672.11 297.218C672.117 297.282 672.07 297.338 672.008 297.344C669.117 297.634 666.256 298.487 663.489 299.313L663.119 299.423C653.048 302.423 643.02 308.103 633.315 316.305C628.905 320.03 624.468 324.16 621.893 329.106C621.872 329.145 621.831 329.168 621.79 329.168Z" fill="black"/>
<path d="M571.841 291.834C570.776 286.008 572.148 280.083 573.549 274.407C576.204 263.639 580.798 253.539 588.049 245.239C590.109 242.878 591.973 240.45 594.357 238.402C598.684 234.685 604.487 230.831 610.354 230.668C615.746 230.518 621.378 233.226 622.062 239.267C622.678 244.723 618.737 250.141 616.08 254.404C609.34 265.209 599.877 274.042 593.58 285.174C591.481 288.881 589.848 293.053 588.238 297.014C587.391 299.096 586.067 302.407 583.829 303.326C582.28 303.962 580.713 302.73 579.504 301.934C578.082 300.997 577.235 299.667 576.153 298.353C574.508 296.356 572.325 294.478 571.841 291.834Z" fill="#45969B"/>
<path d="M576.838 298.818C576.775 298.818 576.723 298.766 576.723 298.703C576.723 294.649 578.206 288.892 581.133 281.593C583.749 275.064 586.629 268.152 590.531 261.736C592.731 258.12 595.324 254.699 597.582 251.776C599.325 249.518 601.244 247.134 603.462 245.007C603.787 244.696 604.11 244.355 604.423 244.027C605.094 243.32 605.787 242.589 606.588 242.041C606.642 242.006 606.712 242.019 606.748 242.07C606.784 242.123 606.77 242.194 606.719 242.23C605.938 242.765 605.252 243.487 604.59 244.185C604.276 244.516 603.95 244.858 603.621 245.173C601.414 247.29 599.502 249.665 597.764 251.916C595.51 254.834 592.922 258.248 590.729 261.855C586.835 268.255 583.96 275.158 581.346 281.678C578.431 288.951 576.953 294.678 576.953 298.702C576.954 298.766 576.902 298.818 576.838 298.818Z" fill="black"/>
<path d="M609.311 310.752C598.567 306.712 592.424 312.078 591.134 310.752C590.52 310.121 587.531 277.749 558.486 278.732C548.378 279.075 543.991 285.975 541.791 285.975C541.268 285.975 534.06 280.479 532.887 279.875C525.533 276.097 517.125 274.85 509.142 277.97C480.564 289.132 477.132 314.599 476.122 314.944C475.837 315.042 464.46 309.586 449.473 319.018C442.676 323.294 437.876 329.464 435.125 335.569H629.503C626.045 324.727 620.253 314.866 609.311 310.752Z" fill="#2D965F"/>
<path d="M118.179 115.143C112.206 115.143 107.346 110.284 107.346 104.31C107.346 98.3366 112.206 93.4766 118.179 93.4766C124.152 93.4766 129.012 98.3356 129.012 104.31C129.012 110.284 124.152 115.143 118.179 115.143ZM118.179 93.7086C112.333 93.7086 107.577 98.4646 107.577 104.311C107.577 110.157 112.333 114.913 118.179 114.913C124.025 114.913 128.781 110.157 128.781 104.311C128.781 98.4636 124.025 93.7086 118.179 93.7086Z" fill="#52BA86"/>
<path d="M283.072 12.7089C283.072 16.0219 280.386 18.7069 277.074 18.7069C273.762 18.7069 271.076 16.0219 271.076 12.7089C271.076 9.39593 273.762 6.71094 277.074 6.71094C280.386 6.71094 283.072 9.39593 283.072 12.7089Z" fill="#52BA86"/>
<path d="M657.764 203.972C650.897 203.972 645.31 198.385 645.31 191.518C645.31 184.651 650.897 179.064 657.764 179.064C664.63 179.064 670.217 184.651 670.217 191.518C670.217 198.385 664.63 203.972 657.764 203.972ZM657.764 179.295C651.024 179.295 645.54 184.778 645.54 191.519C645.54 198.259 651.023 203.742 657.764 203.742C664.503 203.742 669.987 198.259 669.987 191.519C669.987 184.778 664.503 179.295 657.764 179.295Z" fill="#45969B"/>
<g opacity="0.3">
<path d="M118.388 360.817C132.339 360.817 143.649 357.567 143.649 353.558C143.649 349.549 132.339 346.299 118.388 346.299C104.437 346.299 93.127 349.549 93.127 353.558C93.127 357.567 104.437 360.817 118.388 360.817Z" fill="#2D965F"/>
<path d="M204.977 372.218C216.098 372.218 225.113 369.673 225.113 366.535C225.113 363.396 216.098 360.852 204.977 360.852C193.856 360.852 184.841 363.396 184.841 366.535C184.841 369.673 193.856 372.218 204.977 372.218Z" fill="#2D965F"/>
<path d="M380.35 386.626C380.35 389.998 372.254 392.732 362.267 392.732C352.28 392.732 344.184 389.998 344.184 386.626C344.184 383.254 352.28 380.52 362.267 380.52C372.253 380.52 380.35 383.254 380.35 386.626Z" fill="#2D965F"/>
<path d="M528.442 354.125C528.442 357.839 520.158 360.85 509.939 360.85C499.72 360.85 491.436 357.839 491.436 354.125C491.436 350.411 499.72 347.4 509.939 347.4C520.158 347.4 528.442 350.411 528.442 354.125Z" fill="#2D965F"/>
<path d="M488.898 364.807C488.898 367.011 483.778 368.798 477.462 368.798C471.146 368.798 466.026 367.011 466.026 364.807C466.026 362.603 471.146 360.816 477.462 360.816C483.778 360.816 488.898 362.603 488.898 364.807Z" fill="#2D965F"/>
</g>
<path d="M146.085 160.995C154.436 154.94 162.693 159.874 162.693 159.874C162.693 159.874 155.58 163.728 154.248 178.991C152.916 194.254 156.117 197.973 161.775 198.518C161.775 198.518 154.376 201.924 149.75 195.969C149.75 195.969 151.609 200.53 154.072 200.998C154.072 200.998 144.43 202.707 141.719 195.391C139.009 188.075 137.735 167.05 146.085 160.995Z" fill="#A5612F"/>
<path d="M216.025 152.846C215.413 147.686 212.124 140.603 208.928 141.23C206.292 141.746 204.904 146.135 204.692 150.338C204.528 153.539 206.12 156.977 206.12 156.977C206.12 156.977 200.474 152.538 200.94 155.965C201.407 159.392 208.932 165.768 208.932 165.768C205.218 175.996 202.149 192.16 202.149 192.16C202.149 192.16 190.24 195.297 175.669 201.039C170.475 203.086 173.159 218.391 180.538 216.381C187.917 214.371 206.007 203.975 210.834 197.49C215.661 191.005 214.75 165.328 214.75 165.328C214.75 165.328 216.814 159.464 216.025 152.846Z" fill="#FFD19F"/>
<path d="M206.531 143.207C206.511 143.195 206.488 143.189 206.464 143.192C206.405 143.199 206.362 143.252 206.369 143.311C206.378 143.396 207.591 151.332 207.918 152.526C207.912 152.542 207.91 152.559 207.912 152.576L207.932 152.575C207.95 152.636 207.967 152.672 207.976 152.675C208.011 152.69 208.052 152.686 208.083 152.663C208.114 152.64 208.129 152.589 208.125 152.551C208.124 152.538 208.12 152.526 208.114 152.515C208.007 152.011 206.83 145.505 206.582 143.287C206.579 143.252 206.559 143.223 206.531 143.207Z" fill="black"/>
<path d="M208.846 141.209C208.826 141.197 208.803 141.191 208.778 141.194C208.719 141.201 208.677 141.254 208.683 141.313C208.824 142.57 209.146 144.434 209.488 146.408C209.845 148.474 210.215 150.611 210.372 152.06C210.378 152.119 210.431 152.162 210.49 152.155C210.549 152.149 210.592 152.096 210.585 152.037C210.427 150.581 210.057 148.441 209.699 146.371C209.358 144.401 209.037 142.54 208.896 141.289C208.893 141.255 208.873 141.226 208.846 141.209Z" fill="black"/>
<path d="M211.088 141.771C211.064 141.757 211.035 141.751 211.005 141.759C210.948 141.774 210.913 141.832 210.928 141.89C211.581 144.451 212.03 147.603 212.542 151.859C212.549 151.918 212.603 151.96 212.662 151.953C212.721 151.946 212.763 151.892 212.756 151.833C212.242 147.569 211.792 144.41 211.136 141.837C211.129 141.808 211.111 141.785 211.088 141.771Z" fill="black"/>
<path d="M213.306 151.829C213.29 151.82 213.272 151.814 213.253 151.814C210.966 151.768 208.541 152.184 206.599 152.957C206.544 152.979 206.517 153.042 206.539 153.097C206.561 153.152 206.623 153.179 206.679 153.157C208.595 152.394 210.99 151.983 213.25 152.028C213.309 152.029 213.358 151.982 213.36 151.923C213.359 151.884 213.338 151.849 213.306 151.829Z" fill="black"/>
<path d="M190.039 195.844C185.893 197.217 180.958 198.956 175.669 201.041C170.475 203.088 173.159 218.393 180.538 216.383C184.261 215.369 190.709 212.22 196.806 208.516C195.696 201.874 192.595 197.989 190.039 195.844Z" fill="#51B6BB"/>
<path d="M147.95 347.4C147.95 347.4 131.671 354.408 130.214 360.856C128.756 367.307 153.966 357.885 157.33 354.398C157.33 354.398 157.697 352.391 158.216 349.078C151.77 350.924 147.95 347.4 147.95 347.4Z" fill="#FFD19F"/>
<path d="M187.438 346.117C186.109 349.458 179.044 348.35 179.044 348.35C179.521 350.665 180.047 353.079 180.629 355.597C180.629 355.597 203.859 368.212 205.744 363.296C207.627 358.379 187.438 346.117 187.438 346.117Z" fill="#FFD19F"/>
<path d="M187.438 346.115C187.438 346.115 193.471 268.085 185.152 242.289C172.497 244.957 159.837 243.337 153.782 242.23C151.274 247.273 148.791 254.848 148.608 265.246C148.23 286.673 147.949 347.398 147.949 347.398C147.949 347.398 151.769 350.923 158.215 349.076C159.945 338.033 165.368 312.462 162.551 298.21L168.266 260.587L174.854 297.776C174.854 297.776 170.604 307.383 179.044 348.347C179.044 348.347 186.109 349.456 187.438 346.115Z" fill="#44413D"/>
<path d="M176.774 260.801C176.772 260.801 176.77 260.801 176.768 260.801C174.001 260.661 171.019 260.623 167.385 260.679C167.322 260.684 167.277 260.632 167.276 260.573C167.275 260.514 167.322 260.465 167.382 260.464C171.021 260.408 174.007 260.446 176.779 260.586C176.838 260.589 176.884 260.639 176.881 260.699C176.879 260.756 176.831 260.801 176.774 260.801Z" fill="black"/>
<path d="M168.28 260.554C168.277 260.554 168.275 260.554 168.272 260.554C168.213 260.55 168.168 260.499 168.172 260.439C168.339 257.979 168.262 255.427 168.188 252.959C168.158 251.977 168.128 250.961 168.113 249.973C168.076 247.348 168.119 244.676 168.161 242.092C168.209 239.15 168.259 236.109 168.189 233.126C168.188 233.067 168.235 233.017 168.294 233.016C168.358 233.021 168.403 233.062 168.404 233.121C168.474 236.108 168.424 239.152 168.376 242.096C168.334 244.678 168.29 247.349 168.328 249.971C168.342 250.958 168.373 251.973 168.402 252.954C168.477 255.427 168.554 257.984 168.386 260.455C168.383 260.511 168.336 260.554 168.28 260.554Z" fill="black"/>
<path d="M170.864 260.568C170.857 260.568 170.849 260.567 170.841 260.566C170.783 260.554 170.746 260.497 170.758 260.438C170.954 259.514 170.958 258.467 170.962 257.455C170.963 257.058 170.965 256.667 170.978 256.289C171.04 254.52 171.048 252.722 171.057 250.984C171.063 249.661 171.07 248.294 171.099 246.948C171.12 245.999 171.129 245.032 171.137 244.097C171.151 242.553 171.166 240.956 171.235 239.392C171.25 239.062 171.27 238.724 171.29 238.381C171.364 237.122 171.441 235.821 171.284 234.62C171.276 234.561 171.318 234.507 171.377 234.499C171.437 234.489 171.49 234.533 171.498 234.591C171.658 235.812 171.58 237.124 171.505 238.392C171.485 238.733 171.465 239.07 171.45 239.4C171.382 240.961 171.367 242.555 171.353 244.097C171.344 245.033 171.335 246.001 171.315 246.951C171.285 248.295 171.279 249.662 171.273 250.984C171.265 252.724 171.256 254.523 171.195 256.295C171.182 256.67 171.181 257.06 171.179 257.454C171.175 258.477 171.171 259.535 170.97 260.481C170.958 260.534 170.914 260.568 170.864 260.568Z" fill="black"/>
<path d="M186.087 245.743C184.949 240.718 183.299 237.017 180.994 235.26C180.994 235.26 190.43 210.449 187.554 204.982C187.043 204.007 185.965 203.229 184.594 202.608C179.656 200.372 170.901 200.17 170.901 200.17C170.901 200.17 156.324 199.374 153.758 203.454C151.062 207.744 159.129 234.381 159.129 234.381C159.129 234.381 155.537 237.724 152.548 244.945C157.565 247.472 171.76 253.185 186.087 245.743Z" fill="#51B6BB"/>
<path d="M178.615 199.902C177.974 200.145 177.327 200.395 176.674 200.649C173.508 200.232 170.903 200.17 170.903 200.17C170.903 200.17 167.717 199.996 164.062 200.228C164.142 200.98 164.32 201.741 164.609 202.489C166.035 206.179 169.615 208.312 173.006 207.711C173.415 207.638 173.821 207.534 174.22 207.38C176.841 206.367 178.458 203.814 178.621 200.946C178.64 200.601 178.638 200.253 178.615 199.902Z" fill="#FFD19F"/>
<path d="M139.844 352.673C139.556 352.477 139.255 352.297 138.949 352.126C134.916 354.627 130.904 357.803 130.214 360.856C128.756 367.307 153.966 357.885 157.33 354.398C157.33 354.398 157.535 353.274 157.856 351.32C153.249 353.057 148.641 354.794 144.034 356.532C142.743 355.132 141.418 353.742 139.844 352.673Z" fill="#45969B"/>
<path d="M198.161 353.532C195.828 354.041 193.641 355.24 192.054 357.027C188.005 354.338 183.755 351.956 179.367 349.867C179.759 351.72 180.172 353.617 180.629 355.597C180.629 355.597 203.859 368.212 205.744 363.295C206.629 360.984 202.639 357.052 198.161 353.532Z" fill="#45969B"/>
<path d="M176.37 195.761C176.37 195.761 184.73 195.191 186.869 187.539C189.196 179.224 189.078 166.573 183.109 161.061C177.144 155.549 156.429 154.337 154.065 169.441C151.922 183.107 157.124 191.803 166.689 195.949V202.225C166.689 202.225 170.385 207.565 176.444 202.964L176.37 195.761Z" fill="#FFD19F"/>
<mask id="mask0_250_16" style="mask-type:luminance" maskUnits="userSpaceOnUse" x="153" y="157" width="36" height="48">
<path d="M176.37 195.761C176.37 195.761 184.73 195.191 186.869 187.539C189.196 179.224 189.078 166.573 183.109 161.061C177.144 155.549 156.429 154.337 154.065 169.441C151.922 183.107 157.124 191.803 166.689 195.949V202.225C166.689 202.225 170.385 207.565 176.444 202.964L176.37 195.761Z" fill="white"/>
</mask>
<g mask="url(#mask0_250_16)">
<path d="M163.44 185.523C163.44 188.16 165.578 190.299 168.215 190.299C170.852 190.299 172.99 188.161 172.99 185.523C172.99 182.885 170.852 180.748 168.215 180.748C165.578 180.748 163.44 182.886 163.44 185.523Z" fill="#F9B693"/>
</g>
<mask id="mask1_250_16" style="mask-type:luminance" maskUnits="userSpaceOnUse" x="153" y="157" width="36" height="48">
<path d="M176.37 195.761C176.37 195.761 184.73 195.191 186.869 187.539C189.196 179.224 189.078 166.573 183.109 161.061C177.144 155.549 156.429 154.337 154.065 169.441C151.922 183.107 157.124 191.803 166.689 195.949V202.225C166.689 202.225 170.385 207.565 176.444 202.964L176.37 195.761Z" fill="white"/>
</mask>
<g mask="url(#mask1_250_16)">
<path d="M181.79 185.046C181.79 187.684 183.928 189.822 186.565 189.822C189.202 189.822 191.341 187.684 191.341 185.046C191.341 182.409 189.203 180.271 186.565 180.271C183.928 180.271 181.79 182.409 181.79 185.046Z" fill="#F9B693"/>
</g>
<path d="M180.225 186.683C180.191 186.683 180.158 186.667 180.137 186.637C180.103 186.588 180.115 186.521 180.164 186.487C180.293 186.397 180.414 186.202 180.521 186.03C180.563 185.963 180.602 185.899 180.64 185.845C180.88 185.502 181.299 184.732 181.162 184.273C181.13 184.188 180.75 184.011 180.588 183.936C180.473 183.883 180.382 183.84 180.333 183.807C179.836 183.47 179.147 182.919 178.68 182.209C177.858 180.965 177.444 179.233 177.545 177.458C177.657 175.465 178.592 173.477 179.984 172.27C181.011 171.381 182.231 170.969 183.508 171.08C184.081 171.13 184.691 171.226 185.278 171.59C185.328 171.621 185.344 171.688 185.313 171.738C185.282 171.788 185.215 171.804 185.165 171.773C184.647 171.452 184.121 171.349 183.49 171.294C182.271 171.188 181.107 171.582 180.125 172.432C178.775 173.602 177.868 175.532 177.759 177.469C177.661 179.199 178.062 180.883 178.859 182.09C179.306 182.77 179.973 183.302 180.453 183.628C180.488 183.651 180.58 183.694 180.678 183.74C181.05 183.913 181.317 184.048 181.367 184.21C181.527 184.748 181.096 185.568 180.816 185.967C180.781 186.018 180.743 186.079 180.704 186.142C180.586 186.332 180.453 186.547 180.288 186.662C180.268 186.677 180.246 186.683 180.225 186.683Z" fill="black"/>
<path d="M174.667 173.121C174.639 173.121 174.611 173.11 174.589 173.088C172.879 171.302 170.472 170.674 168.15 171.406C167.609 171.577 167.214 171.901 166.796 172.244C166.567 172.432 166.331 172.625 166.069 172.792C166.019 172.824 165.952 172.809 165.921 172.759C165.889 172.709 165.904 172.642 165.954 172.611C166.205 172.451 166.436 172.262 166.66 172.078C167.076 171.737 167.506 171.384 168.086 171.201C170.487 170.443 172.977 171.093 174.745 172.939C174.786 172.982 174.785 173.05 174.742 173.091C174.721 173.111 174.694 173.121 174.667 173.121Z" fill="black"/>
<path d="M175.765 190.264C174.952 190.264 173.833 189.961 173.14 189.28C173.098 189.238 173.097 189.17 173.139 189.128C173.181 189.086 173.249 189.085 173.291 189.127C173.845 189.672 174.859 190.05 175.763 190.05C175.771 190.05 175.78 190.049 175.788 190.05C175.847 190.05 175.895 190.098 175.896 190.157C175.896 190.216 175.849 190.265 175.789 190.265C175.781 190.263 175.773 190.264 175.765 190.264Z" fill="black"/>
<path d="M176.877 188.848C176.328 188.848 175.78 188.764 175.263 188.594C174.119 188.219 173.1 187.418 172.465 186.395C172.434 186.345 172.449 186.278 172.5 186.247C172.55 186.216 172.617 186.231 172.648 186.282C173.256 187.262 174.234 188.03 175.33 188.389C176.426 188.748 177.669 188.708 178.739 188.278C178.794 188.256 178.857 188.283 178.879 188.338C178.901 188.393 178.874 188.456 178.819 188.478C178.208 188.724 177.542 188.848 176.877 188.848Z" fill="black"/>
<path d="M172.455 176.121C172.408 176.121 172.365 176.09 172.352 176.043C172.336 175.986 172.369 175.926 172.426 175.91C173.479 175.608 173.42 174.178 173.419 174.164C173.416 174.105 173.462 174.054 173.521 174.051C173.578 174.049 173.631 174.094 173.634 174.153C173.635 174.169 173.703 175.768 172.485 176.117C172.475 176.119 172.465 176.121 172.455 176.121Z" fill="black"/>
<path d="M185.087 175.892C185.04 175.892 184.998 175.861 184.985 175.814C184.969 175.757 185.002 175.697 185.059 175.681C186.112 175.379 186.053 173.949 186.052 173.935C186.049 173.876 186.094 173.825 186.153 173.822C186.209 173.821 186.264 173.865 186.267 173.924C186.268 173.94 186.336 175.539 185.117 175.888C185.107 175.891 185.097 175.892 185.087 175.892Z" fill="black"/>
<path d="M167.087 179.583C166.145 177.284 166.926 174.842 168.833 174.127C170.738 173.413 173.049 174.697 173.991 176.996C174.933 179.295 174.152 181.737 172.245 182.452C170.34 183.166 168.029 181.882 167.087 179.583Z" fill="white"/>
<mask id="mask2_250_16" style="mask-type:luminance" maskUnits="userSpaceOnUse" x="166" y="173" width="9" height="10">
<path d="M167.087 179.583C166.145 177.284 166.926 174.842 168.833 174.127C170.738 173.413 173.049 174.697 173.991 176.996C174.933 179.295 174.152 181.737 172.245 182.452C170.34 183.166 168.029 181.882 167.087 179.583Z" fill="white"/>
</mask>
<g mask="url(#mask2_250_16)">
<path d="M169.26 178.984C169.298 181.027 170.775 182.657 172.559 182.624C174.343 182.591 175.759 180.908 175.722 178.865C175.684 176.822 174.207 175.193 172.423 175.225C170.639 175.258 169.223 176.941 169.26 178.984Z" fill="#557DAD"/>
</g>
<path d="M186.131 178.058C186.376 175.587 185.022 173.46 183.107 173.306C181.192 173.152 179.442 175.03 179.199 177.501C178.954 179.971 180.308 182.099 182.223 182.253C184.138 182.406 185.889 180.528 186.131 178.058Z" fill="white"/>
<mask id="mask3_250_16" style="mask-type:luminance" maskUnits="userSpaceOnUse" x="179" y="173" width="8" height="10">
<path d="M186.131 178.058C186.376 175.587 185.022 173.46 183.107 173.306C181.192 173.152 179.442 175.03 179.199 177.501C178.954 179.971 180.308 182.099 182.223 182.253C184.138 182.406 185.889 180.528 186.131 178.058Z" fill="white"/>
</mask>
<g mask="url(#mask3_250_16)">
<path d="M180.79 178.89C180.828 180.933 182.305 182.563 184.089 182.53C185.873 182.497 187.289 180.814 187.252 178.771C187.214 176.728 185.737 175.098 183.953 175.131C182.169 175.164 180.753 176.847 180.79 178.89Z" fill="#557DAD"/>
</g>
<path d="M161.124 184.235C161.065 184.235 161.017 184.187 161.017 184.128C161.017 181.834 159.628 178.685 157.561 177.653C157.508 177.627 157.486 177.562 157.513 177.509C157.54 177.456 157.604 177.434 157.657 177.461C159.795 178.528 161.232 181.77 161.232 184.128C161.232 184.187 161.184 184.235 161.124 184.235Z" fill="black"/>
<path d="M188.494 171.867C188.494 171.867 189.639 164.384 181.898 159.784C174.684 154.944 155.81 154.415 153.539 168.926C151.36 182.82 155.787 192.301 166.689 195.951L160.278 188.165C154.104 186.139 153.505 176.328 156.824 175.313C160.139 174.297 162.031 179.183 162.031 179.183C162.031 179.183 175.914 172.076 181.51 160.884C181.51 160.884 186.684 165.631 188.494 171.867Z" fill="#B26E36"/>
<path d="M78.5757 259.202L170.614 284.896L187.659 223.842L95.6205 198.147L78.5757 259.202Z" fill="#F9F3EC"/>
<path d="M94.3376 259.152L167.176 279.486L181.916 226.688L109.078 206.353L94.3376 259.152Z" fill="#51B6BB"/>
<path d="M110.884 240.037C117.764 240.607 124.513 242.701 130.507 246.127C144.829 254.312 154.008 269.362 167.324 278.99L167.183 279.493L94.3467 259.157L99.6407 240.196C103.4 239.862 107.152 239.728 110.884 240.037Z" fill="#2D965F"/>
<path d="M97.8174 260.127C98.7834 259.827 99.7414 259.51 100.69 259.177C108.467 256.453 115.905 252.785 123.8 250.425C133.62 247.49 144.058 246.64 154.224 247.949C161.193 248.846 168.322 250.983 174.054 254.89L167.184 279.495L97.8174 260.127Z" fill="#52BA86"/>
<path d="M141.398 229.29C140.273 233.319 142.627 237.497 146.657 238.622C150.686 239.747 154.864 237.393 155.989 233.363C157.114 229.334 154.76 225.156 150.73 224.031C146.701 222.906 142.523 225.261 141.398 229.29Z" fill="#EFAC35"/>
<path d="M147.662 201.834C137.009 204.321 123.879 210.274 122.21 215.471C120.54 220.667 120.578 232.595 123.168 244.953C123.168 244.953 120.271 250.236 122.023 256.504C123.659 262.36 126.188 265.531 129.286 264.865C131.181 264.457 131.774 257.041 129.659 251.505C129.659 251.505 132.443 257.581 133.672 255.452C134.887 253.343 133.496 247.535 128.988 244.071C128.988 244.071 132.023 228.32 130.238 219.344C130.238 219.344 141.258 217.235 147.204 215.783C154.121 214.095 158.572 213.168 161.232 210.803L163.861 200.24C163.861 200.24 153.114 200.561 147.662 201.834Z" fill="#FFD19F"/>
<path d="M125.813 263.975C125.803 263.967 125.794 263.957 125.787 263.945C125.338 263.177 125.15 262.15 124.984 261.244C124.939 260.998 124.895 260.759 124.848 260.534C124.375 258.281 124.069 253.747 124.066 253.702C124.062 253.643 124.107 253.591 124.166 253.588C124.225 253.584 124.276 253.629 124.28 253.688C124.283 253.733 124.588 258.252 125.058 260.49C125.106 260.718 125.15 260.958 125.195 261.206C125.358 262.095 125.543 263.102 125.973 263.837C126.003 263.888 125.986 263.954 125.934 263.984C125.894 264.007 125.846 264.002 125.813 263.975Z" fill="black"/>
<path d="M127.771 264.949C127.754 264.936 127.741 264.917 127.735 264.895C127.728 264.871 127.051 262.51 126.849 261.749C126.361 259.916 126.049 257.944 125.869 255.546C125.812 254.816 125.792 254.086 125.782 253.533C125.781 253.474 125.828 253.425 125.887 253.424C125.946 253.423 125.995 253.47 125.996 253.529C126.006 254.08 126.025 254.805 126.082 255.53C126.262 257.916 126.571 259.874 127.056 261.694C127.257 262.454 127.934 264.812 127.941 264.836C127.957 264.893 127.924 264.953 127.867 264.969C127.833 264.978 127.797 264.97 127.771 264.949Z" fill="black"/>
<path d="M129.63 264.749C129.614 264.736 129.601 264.718 129.594 264.696C128.741 261.856 128.248 258.946 128.166 256.278C128.147 255.617 128.126 254.97 128.084 254.328C128.08 254.26 128.07 254.181 128.061 254.096C128.032 253.848 128 253.567 128.054 253.364C128.069 253.307 128.128 253.272 128.185 253.287C128.242 253.302 128.277 253.361 128.261 253.418C128.218 253.582 128.249 253.853 128.274 254.071C128.284 254.16 128.294 254.243 128.298 254.314C128.34 254.959 128.361 255.608 128.38 256.271C128.461 258.92 128.952 261.811 129.799 264.633C129.816 264.69 129.784 264.75 129.727 264.767C129.693 264.779 129.657 264.77 129.63 264.749Z" fill="black"/>
<path d="M163.86 200.242C163.86 200.242 153.114 200.562 147.661 201.836C146.355 202.141 145.012 202.498 143.658 202.9C145.745 205.707 147.894 209.955 147.972 215.599C154.448 214.027 158.672 213.081 161.231 210.806L163.86 200.242Z" fill="#51B6BB"/>
<path d="M496.803 262.322C492.6 265.381 484.586 257.266 489.485 253.418C494.385 249.57 501.293 249.501 501.293 249.501C509.348 240.754 520.603 230.792 520.603 230.792C520.603 230.792 524.238 219.199 529.471 208.774C533.149 201.433 540.702 200.205 540.702 200.205C540.702 200.205 541.87 204.651 539.098 211.779C536.326 218.907 529.843 233.959 526.427 237.959C519.155 246.471 504.932 254.067 504.932 254.067C504.932 254.067 502.196 258.402 496.803 262.322Z" fill="#45969B"/>
<path d="M587.815 245.404L504.567 198.496L473.451 253.719L556.698 300.627L587.815 245.404Z" fill="white"/>
<path d="M572.496 241.693L506.615 204.57L479.706 252.326L545.587 289.448L572.496 241.693Z" fill="#52BA86"/>
<path d="M511.323 238.058C506.475 246.025 508.778 256.276 516.467 260.956C524.156 265.635 534.32 262.971 539.168 255.004C544.016 247.037 541.713 236.786 534.024 232.106C526.334 227.427 516.171 230.092 511.323 238.058Z" fill="#2D965F"/>
<path d="M530.165 246.574C529.441 247.763 529.785 249.293 530.933 249.992C532.081 250.691 533.598 250.293 534.322 249.104C535.046 247.915 534.702 246.385 533.554 245.686C532.406 244.987 530.889 245.385 530.165 246.574Z" fill="#51B6BB"/>
<path d="M518.79 239.651C518.066 240.84 518.41 242.37 519.558 243.069C520.706 243.768 522.223 243.37 522.947 242.181C523.671 240.992 523.327 239.462 522.179 238.763C521.03 238.064 519.513 238.462 518.79 239.651Z" fill="#51B6BB"/>
<path d="M517.29 245.678C517.499 245.677 517.692 245.733 517.864 245.825V245.824L517.886 245.837C517.925 245.859 517.963 245.88 517.999 245.906L529.13 252.68C529.169 252.7 529.206 252.724 529.243 252.749L529.253 252.755V252.756C529.418 252.867 529.562 253.016 529.659 253.206C529.965 253.803 529.729 254.534 529.132 254.84C526.29 256.295 523.007 256.198 520.349 254.581C517.692 252.964 516.097 250.092 516.084 246.899C516.078 246.227 516.619 245.681 517.29 245.678Z" fill="#51B6BB"/>
<path d="M565.372 347.101C565.372 347.101 570.429 269.088 569.92 246.566C552.088 249.188 539.895 246.331 536.34 245.311C533.809 270.622 533.977 344.356 533.977 344.356C533.977 344.356 536.755 348.072 544.444 345.869C552.229 307.539 549.47 296.399 549.47 296.399L550.44 265.286L552.104 265.255L552.879 297.313C550.734 312.723 553.24 335.826 554.729 347.055C556.711 348.015 561.539 349.831 565.372 347.101Z" fill="#44413D"/>
<path d="M533.977 344.357C533.977 344.357 514.271 358.441 515.924 363.439C517.579 368.438 542.953 352.945 542.953 352.945C543.489 350.488 543.984 348.134 544.444 345.87C536.754 348.073 533.977 344.357 533.977 344.357Z" fill="#52BA86"/>
<path d="M522.345 353.821C518.435 357.48 515.214 361.295 515.923 363.439C517.578 368.438 542.952 352.945 542.952 352.945C543.14 352.085 543.321 351.241 543.499 350.406C538.145 353.352 532.744 356.214 527.293 358.979C526.442 356.677 524.577 354.828 522.345 353.821Z" fill="#F8F8F8"/>
<path d="M582.464 361.366C581.307 354.857 565.371 347.101 565.371 347.101C561.539 349.831 556.71 348.015 554.727 347.057C555.269 351.142 555.676 353.656 555.676 353.656C558.876 357.296 583.621 367.877 582.464 361.366Z" fill="#52BA86"/>
<path d="M582.464 361.365C581.917 358.287 578.064 354.93 574.155 352.246C574.124 352.275 574.091 352.302 574.06 352.331C572.24 354.036 571.033 356.286 569.983 358.548C564.967 356.461 560.075 354.077 555.335 351.42C555.546 352.853 555.676 353.655 555.676 353.655C558.876 357.295 583.621 367.876 582.464 361.365Z" fill="#F8F8F8"/>
<path d="M540.429 340.99C538.209 340.789 535.952 340.246 533.975 339.242C533.972 342.485 533.976 344.356 533.976 344.356C533.976 344.356 536.754 348.072 544.443 345.869C544.805 344.088 545.144 342.366 545.461 340.701C543.84 341.091 542.092 341.14 540.429 340.99Z" fill="#44413D"/>
<path d="M559.897 342.427C557.909 342.436 555.824 342.154 554.02 341.369C554.266 343.481 554.508 345.399 554.728 347.057C556.711 348.015 561.539 349.831 565.372 347.101C565.372 347.101 565.505 345.049 565.725 341.517C563.87 342.147 561.858 342.418 559.897 342.427Z" fill="#44413D"/>
<path d="M553.875 265.393C553.856 265.393 553.837 265.388 553.82 265.378C553.763 265.344 553.567 265.36 553.461 265.369C553.402 265.374 553.35 265.378 553.311 265.378C552.874 265.374 552.434 265.363 552.001 265.345C550.761 265.297 549.502 265.323 548.284 265.348C547.546 265.363 546.782 265.377 546.031 265.378C545.972 265.378 545.924 265.33 545.924 265.27C545.924 265.211 545.972 265.163 546.032 265.163C546.781 265.16 547.543 265.148 548.28 265.133C549.501 265.108 550.763 265.082 552.01 265.13C552.441 265.147 552.88 265.159 553.313 265.163C553.346 265.163 553.393 265.159 553.445 265.155C553.654 265.138 553.824 265.13 553.931 265.194C553.982 265.224 553.999 265.29 553.969 265.341C553.947 265.375 553.912 265.393 553.875 265.393Z" fill="black"/>
<path d="M549.227 265.276C549.185 265.276 549.146 265.251 549.128 265.21C548.722 264.251 548.663 263.11 548.606 262.006C548.588 261.654 548.57 261.322 548.542 261.002C548.237 257.564 548.394 253.93 549.006 250.201C549.163 249.243 549.409 248.28 549.647 247.349C549.911 246.319 550.183 245.254 550.332 244.202C550.34 244.143 550.396 244.101 550.453 244.111C550.512 244.119 550.553 244.174 550.544 244.232C550.394 245.296 550.12 246.367 549.855 247.403C549.618 248.33 549.373 249.288 549.218 250.236C548.608 253.947 548.453 257.563 548.756 260.983C548.785 261.307 548.802 261.641 548.82 261.995C548.876 263.08 548.934 264.202 549.325 265.126C549.348 265.181 549.323 265.244 549.268 265.267C549.256 265.273 549.241 265.276 549.227 265.276Z" fill="black"/>
<path d="M551.517 265.21C551.469 265.21 551.425 265.178 551.413 265.129C551.03 263.63 551.006 262.007 550.984 260.438C550.98 260.142 550.975 259.849 550.969 259.56C550.875 255.371 551.18 251.56 551.878 248.23C551.975 247.768 552.035 247.259 552.098 246.719C552.223 245.659 552.351 244.562 552.782 243.698C552.808 243.645 552.873 243.623 552.926 243.65C552.979 243.676 553.001 243.741 552.974 243.794C552.56 244.625 552.433 245.702 552.311 246.744C552.247 247.288 552.187 247.803 552.088 248.274C551.394 251.587 551.09 255.382 551.184 259.555C551.191 259.845 551.195 260.139 551.199 260.435C551.222 261.992 551.245 263.601 551.622 265.076C551.637 265.134 551.602 265.192 551.544 265.207C551.535 265.209 551.526 265.21 551.517 265.21Z" fill="black"/>
<path d="M569.954 250.452C569.958 246.98 569.886 244.261 569.713 242.558C568.23 227.888 571.74 207.59 569.246 203.18C566.875 198.986 552.274 199.104 552.274 199.104C552.274 199.104 543.519 198.899 538.483 200.903C537.085 201.46 535.971 202.188 535.415 203.137C532.289 208.465 538.802 229.962 536.988 240.288C536.56 242.723 536.192 246.362 535.876 250.837C539.808 254.385 552.817 263.68 569.954 250.452Z" fill="#45969B"/>
<path d="M581.54 222.79C581.54 222.79 577.338 212.484 574.282 207.18C571.224 201.876 564.219 199.976 562.028 200.022C559.457 200.076 558.327 204.545 564.568 213.623C570.768 222.637 576.904 235.819 582.269 234.821C587.634 233.823 599.656 213.037 601.465 209.044C601.465 209.044 607.489 209.083 612.174 204.565C616.549 200.343 619.331 197.048 617.274 194.639C616.014 193.165 606.168 194.951 602.298 199.443C602.298 199.443 602.924 193.578 601.301 192.767C599.679 191.956 596.921 201.559 597.294 206.676C597.294 206.676 584.785 216.363 581.54 222.79Z" fill="#FFA05F"/>
<path d="M607.876 198.832C607.838 198.832 607.802 198.812 607.782 198.777C607.753 198.725 607.771 198.66 607.823 198.631C609.767 197.531 612.963 196.033 616.82 194.412L616.938 194.362C616.993 194.339 617.056 194.365 617.079 194.419C617.102 194.474 617.076 194.537 617.022 194.56L616.904 194.609C613.054 196.227 609.867 197.722 607.929 198.817C607.912 198.827 607.894 198.832 607.876 198.832Z" fill="black"/>
<path d="M608.935 200.704C608.897 200.704 608.86 200.684 608.84 200.648C608.811 200.596 608.831 200.53 608.883 200.502C608.942 200.47 614.827 197.253 617.89 195.809C617.944 195.783 618.008 195.807 618.033 195.86C618.058 195.914 618.035 195.978 617.982 196.003C614.925 197.445 609.046 200.658 608.987 200.69C608.97 200.699 608.953 200.704 608.935 200.704Z" fill="black"/>
<path d="M609.698 202.519C609.658 202.519 609.62 202.497 609.601 202.459C609.575 202.406 609.597 202.341 609.65 202.315C610.054 202.117 610.86 201.635 611.713 201.126C612.484 200.665 613.281 200.189 613.826 199.897C614.424 199.577 617.658 197.591 617.691 197.571C617.742 197.54 617.808 197.556 617.839 197.606C617.87 197.657 617.854 197.723 617.804 197.754C617.671 197.836 614.532 199.764 613.928 200.087C613.387 200.377 612.593 200.852 611.824 201.311C610.967 201.823 610.157 202.307 609.745 202.509C609.73 202.515 609.714 202.519 609.698 202.519Z" fill="black"/>
<path d="M609.847 203.006C609.802 203.006 609.759 202.977 609.745 202.931C609.253 201.38 608.525 199.936 607.581 198.639C607.546 198.591 607.557 198.524 607.605 198.489C607.653 198.454 607.72 198.465 607.755 198.513C608.713 199.829 609.452 201.294 609.951 202.867C609.969 202.924 609.938 202.984 609.881 203.002C609.869 203.004 609.858 203.006 609.847 203.006Z" fill="black"/>
<path d="M588.661 214.172C585.731 217.001 582.863 220.167 581.539 222.79C581.539 222.79 577.337 212.484 574.281 207.18C571.223 201.876 564.218 199.976 562.027 200.022C559.456 200.076 557.941 204.573 564.182 213.65C570.381 222.664 576.903 235.819 582.268 234.821C585.451 234.229 590.977 226.672 595.323 219.789C593.99 219.185 592.733 218.413 591.612 217.471C590.479 216.517 589.492 215.397 588.661 214.172Z" fill="#45969B"/>
<path d="M550.807 204.295C555.191 204.693 558.511 201.818 560.21 199.612C556.136 199.072 552.274 199.103 552.274 199.103C552.274 199.103 549.303 199.034 545.829 199.372C546.001 200.952 546.852 203.936 550.807 204.295Z" fill="#FFA05F"/>
<path d="M537.694 173.999L557.165 195.577C577.93 193.181 576.845 168.61 575.726 163.887C574.394 158.267 569.488 158.747 569.488 158.747C569.488 158.747 569.096 154.117 563.461 152.416C557.826 150.715 549.745 153.798 543.365 149.971C543.365 149.971 542.386 153.373 544.683 154.649C544.683 154.649 539.705 154.011 534.57 158.37C529.436 162.729 529.648 168.365 524.013 168.578C524.013 168.578 527.842 177.405 537.694 173.999Z" fill="#75421C"/>
<path d="M547.484 195.387C547.484 195.387 539.124 194.817 536.985 187.165C534.658 178.85 534.776 166.199 540.745 160.687C546.71 155.176 567.425 153.963 569.789 169.067C571.932 182.733 566.73 191.429 557.165 195.575V200.034C557.165 200.034 553.469 205.374 547.41 200.773L547.484 195.387Z" fill="#FFA05F"/>
<mask id="mask4_250_16" style="mask-type:luminance" maskUnits="userSpaceOnUse" x="535" y="156" width="36" height="47">
<path d="M547.484 195.387C547.484 195.387 539.124 194.817 536.985 187.165C534.658 178.85 534.776 166.199 540.745 160.687C546.71 155.176 567.425 153.963 569.789 169.067C571.932 182.733 566.73 191.429 557.165 195.575V200.034C557.165 200.034 553.469 205.374 547.41 200.773L547.484 195.387Z" fill="white"/>
</mask>
<g mask="url(#mask4_250_16)">
<path d="M560.413 185.15C560.413 187.787 558.275 189.926 555.637 189.926C553 189.926 550.862 187.788 550.862 185.15C550.862 182.512 553 180.375 555.637 180.375C558.275 180.374 560.413 182.512 560.413 185.15Z" fill="#F48656"/>
</g>
<mask id="mask5_250_16" style="mask-type:luminance" maskUnits="userSpaceOnUse" x="535" y="156" width="36" height="47">
<path d="M547.484 195.387C547.484 195.387 539.124 194.817 536.985 187.165C534.658 178.85 534.776 166.199 540.745 160.687C546.71 155.176 567.425 153.963 569.789 169.067C571.932 182.733 566.73 191.429 557.165 195.575V200.034C557.165 200.034 553.469 205.374 547.41 200.773L547.484 195.387Z" fill="white"/>
</mask>
<g mask="url(#mask5_250_16)">
<path d="M542.064 184.671C542.064 187.309 539.926 189.447 537.288 189.447C534.65 189.447 532.512 187.309 532.512 184.671C532.512 182.034 534.65 179.896 537.288 179.896C539.926 179.895 542.064 182.034 542.064 184.671Z" fill="#F48656"/>
</g>
<path d="M543.628 186.309C543.607 186.309 543.585 186.303 543.567 186.29C543.401 186.174 543.268 185.959 543.15 185.769C543.111 185.705 543.073 185.645 543.038 185.594C542.758 185.195 542.327 184.375 542.486 183.838C542.536 183.675 542.803 183.54 543.175 183.367C543.273 183.322 543.365 183.279 543.4 183.255C543.88 182.929 544.546 182.398 544.994 181.717C545.791 180.51 546.192 178.826 546.094 177.096C545.985 175.159 545.079 173.229 543.728 172.059C542.747 171.209 541.583 170.814 540.363 170.921C539.733 170.976 539.207 171.078 538.689 171.4C538.639 171.431 538.572 171.416 538.541 171.365C538.51 171.315 538.525 171.248 538.576 171.217C539.163 170.853 539.773 170.757 540.345 170.707C541.624 170.595 542.843 171.007 543.869 171.896C545.262 173.103 546.196 175.091 546.309 177.084C546.41 178.859 545.997 180.591 545.175 181.836C544.709 182.545 544.018 183.096 543.521 183.433C543.472 183.466 543.381 183.509 543.266 183.562C543.104 183.638 542.724 183.814 542.692 183.901C542.556 184.359 542.974 185.129 543.214 185.471C543.252 185.526 543.292 185.589 543.334 185.656C543.441 185.828 543.562 186.023 543.691 186.113C543.74 186.147 543.751 186.214 543.717 186.263C543.696 186.293 543.662 186.309 543.628 186.309Z" fill="black"/>
<path d="M549.186 172.746C549.159 172.746 549.133 172.736 549.112 172.716C549.069 172.675 549.068 172.607 549.109 172.564C550.877 170.718 553.367 170.068 555.768 170.826C556.348 171.009 556.778 171.362 557.194 171.703C557.418 171.887 557.649 172.076 557.9 172.236C557.95 172.268 557.965 172.334 557.933 172.384C557.901 172.434 557.835 172.449 557.785 172.417C557.523 172.25 557.287 172.057 557.058 171.869C556.64 171.526 556.245 171.202 555.704 171.031C553.382 170.299 550.975 170.927 549.265 172.713C549.243 172.735 549.215 172.746 549.186 172.746Z" fill="black"/>
<path d="M547.838 191.009C547.746 191.009 547.656 191.006 547.571 190.999C547.512 190.994 547.467 190.943 547.472 190.884C547.477 190.825 547.528 190.783 547.587 190.785C548.495 190.854 549.545 190.545 550.141 190.035C550.186 189.997 550.254 190.002 550.293 190.047C550.332 190.092 550.327 190.16 550.281 190.199C549.614 190.77 548.621 191.009 547.838 191.009Z" fill="black"/>
<path d="M556.766 179.208C557.708 176.909 556.927 174.467 555.02 173.752C553.115 173.038 550.804 174.322 549.862 176.621C548.92 178.92 549.701 181.362 551.608 182.077C553.514 182.792 555.824 181.507 556.766 179.208Z" fill="white"/>
<mask id="mask6_250_16" style="mask-type:luminance" maskUnits="userSpaceOnUse" x="549" y="173" width="9" height="10">
<path d="M556.766 179.208C557.708 176.909 556.927 174.467 555.02 173.752C553.115 173.038 550.804 174.322 549.862 176.621C548.92 178.92 549.701 181.362 551.608 182.077C553.514 182.792 555.824 181.507 556.766 179.208Z" fill="white"/>
</mask>
<g mask="url(#mask6_250_16)">
<path d="M554.593 178.611C554.555 180.654 553.078 182.284 551.294 182.251C549.509 182.218 548.093 180.535 548.131 178.492C548.169 176.449 549.646 174.82 551.43 174.852C553.215 174.885 554.631 176.568 554.593 178.611Z" fill="#AF6A3A"/>
</g>
<path d="M537.723 177.683C537.478 175.212 538.833 173.085 540.747 172.931C542.662 172.777 544.412 174.655 544.655 177.126C544.9 179.596 543.546 181.724 541.631 181.878C539.716 182.032 537.966 180.154 537.723 177.683Z" fill="white"/>
<mask id="mask7_250_16" style="mask-type:luminance" maskUnits="userSpaceOnUse" x="537" y="172" width="8" height="10">
<path d="M537.723 177.683C537.478 175.212 538.833 173.085 540.747 172.931C542.662 172.777 544.412 174.655 544.655 177.126C544.9 179.596 543.546 181.724 541.631 181.878C539.716 182.032 537.966 180.154 537.723 177.683Z" fill="white"/>
</mask>
<g mask="url(#mask7_250_16)">
<path d="M543.064 178.515C543.026 180.558 541.549 182.188 539.765 182.155C537.981 182.122 536.564 180.439 536.602 178.396C536.639 176.353 538.117 174.723 539.901 174.756C541.686 174.789 543.102 176.472 543.064 178.515Z" fill="#AF6A3A"/>
</g>
<path d="M544.072 186.968C544.072 186.968 548.629 188.084 551.398 185.031C551.398 185.031 551.374 188.914 548.771 189.629C545.165 190.62 544.072 186.968 544.072 186.968Z" fill="#421C0D"/>
<mask id="mask8_250_16" style="mask-type:luminance" maskUnits="userSpaceOnUse" x="544" y="185" width="8" height="5">
<path d="M544.072 186.968C544.072 186.968 548.629 188.084 551.398 185.031C551.398 185.031 551.374 188.914 548.771 189.629C545.165 190.62 544.072 186.968 544.072 186.968Z" fill="white"/>
</mask>
<g mask="url(#mask8_250_16)">
<path d="M551.398 185.031C550.372 186.162 549.102 186.72 547.908 186.975C547.518 187.728 547.241 188.698 547.455 189.795C547.851 189.809 548.288 189.762 548.772 189.629C551.374 188.914 551.398 185.031 551.398 185.031Z" fill="#ED765F"/>
</g>
<mask id="mask9_250_16" style="mask-type:luminance" maskUnits="userSpaceOnUse" x="544" y="185" width="8" height="5">
<path d="M544.072 186.968C544.072 186.968 548.629 188.084 551.398 185.031C551.398 185.031 551.374 188.914 548.771 189.629C545.165 190.62 544.072 186.968 544.072 186.968Z" fill="white"/>
</mask>
<g mask="url(#mask9_250_16)">
<path d="M551.638 186.043C551.638 186.043 550.922 186.813 549.789 187.416C548.178 188.272 545.84 188.484 544.989 186.808L551.639 183.949L551.638 186.043Z" fill="white"/>
</g>
<path d="M562.73 183.86C562.671 183.86 562.622 183.812 562.622 183.753C562.622 181.395 564.059 178.153 566.197 177.086C566.25 177.059 566.315 177.081 566.341 177.134C566.368 177.187 566.346 177.252 566.293 177.278C564.225 178.309 562.837 181.458 562.837 183.753C562.838 183.812 562.79 183.86 562.73 183.86Z" fill="black"/>
<path d="M542.424 158.947C549.638 154.107 568.045 154.04 570.316 168.55C572.495 182.444 568.068 191.926 557.166 195.575L563.577 187.789C569.751 185.763 570.35 175.953 567.031 174.937C563.716 173.921 561.824 178.807 561.824 178.807C561.824 178.807 559.172 175.437 559.1 168.74C559.1 168.74 551.872 172.125 544.612 169.604C544.612 169.604 548.874 168.812 550.674 165.499C550.674 165.499 543.384 169.676 535.579 167.948C535.579 167.948 537.073 161.107 542.424 158.947Z" fill="#75421C"/>
<path d="M491.321 257.054C494.35 259.34 496.469 261.639 493.926 265.007C491.383 268.376 488.592 266.967 485.563 264.681C482.534 262.395 480.367 260.16 482.958 256.728C485.549 253.296 488.293 254.768 491.321 257.054Z" fill="#FFA05F"/>
<path d="M483.407 262.887C483.375 262.906 483.334 262.909 483.297 262.892C483.241 262.865 483.216 262.796 483.244 262.738C483.857 261.478 485.617 258.229 488.704 255.303C488.748 255.259 488.823 255.262 488.866 255.307C488.91 255.353 488.908 255.426 488.861 255.47C485.801 258.37 484.058 261.589 483.45 262.839C483.441 262.86 483.426 262.876 483.407 262.887Z" fill="black"/>
<path d="M485.623 264.781C485.591 264.8 485.55 264.803 485.513 264.786C485.457 264.759 485.432 264.69 485.46 264.632C486.141 263.233 488.224 259.831 491.242 256.971C491.284 256.927 491.361 256.93 491.404 256.976C491.448 257.022 491.446 257.094 491.399 257.138C488.406 259.975 486.34 263.346 485.666 264.733C485.657 264.754 485.641 264.77 485.623 264.781Z" fill="black"/>
<path d="M487.976 266.322C487.944 266.341 487.903 266.344 487.866 266.327C487.81 266.299 487.785 266.231 487.813 266.173C488.426 264.912 490.188 261.662 493.272 258.739C493.318 258.694 493.391 258.698 493.434 258.744C493.478 258.79 493.476 258.862 493.429 258.906C490.372 261.803 488.627 265.023 488.019 266.274C488.01 266.295 487.995 266.311 487.976 266.322Z" fill="black"/>
</svg>
