<svg width="200" height="170" viewBox="0 0 200 170" fill="none" xmlns="http://www.w3.org/2000/svg">
<path d="M0 12V152.236C0 160.736 8.59431 166.541 16.48 163.368L77.8163 138.684C78.3969 138.451 78.9583 138.172 79.4954 137.851L132.6 106.092C133.808 105.37 134.88 104.44 135.766 103.347L179.208 49.7154C179.951 48.799 180.554 47.7782 180.998 46.6859L193.275 16.5238C196.487 8.6319 190.681 0 182.16 0H12C5.37258 0 0 5.37258 0 12Z" fill="#C2FFF3" fill-opacity="0.7"/>
<path d="M0 12V140.056C0 148.604 8.68342 154.411 16.5834 151.146L70.3303 128.933C70.9179 128.691 71.4853 128.401 72.0271 128.069L119.836 98.7057C121.04 97.9665 122.103 97.0207 122.978 95.9118L162.11 46.2999C162.831 45.3859 163.415 44.3718 163.844 43.2896L174.492 16.4213C177.614 8.54405 171.809 0 163.336 0H12C5.37258 0 0 5.37258 0 12Z" fill="#9CFCF9" fill-opacity="0.6"/>
<path d="M0 12V117.284C0 125.772 8.56997 131.577 16.4516 128.428L62.0816 110.2C62.6602 109.969 63.2199 109.693 63.7557 109.375L105.713 84.4674C106.922 83.7496 107.996 82.8249 108.885 81.7355L143.134 39.7653C143.882 38.8484 144.49 37.8258 144.939 36.7309L153.213 16.5525C156.451 8.65665 150.644 0 142.11 0H12C5.37258 0 0 5.37258 0 12Z" fill="#55C4FF" fill-opacity="0.3"/>
<path d="M0 12V91.67C0 100.058 8.38551 105.858 16.2338 102.898L53.0118 89.0305C53.5741 88.8185 54.1197 88.5645 54.644 88.2707L90.1691 68.3643C91.3837 67.6837 92.4705 66.797 93.381 65.7438L122.223 32.382C123.017 31.4632 123.667 30.4291 124.151 29.315L129.596 16.781C133.038 8.85614 127.23 0 118.589 0H12C5.37258 0 0 5.37259 0 12Z" fill="#7FFFD4" fill-opacity="0.6"/>
</svg>
