<svg width="268" height="322" viewBox="0 0 268 322" fill="none" xmlns="http://www.w3.org/2000/svg">
<rect x="129.457" y="77.0582" width="149" height="149" transform="rotate(42.9138 129.457 77.0582)" fill="#28A6AE" stroke="black"/>
<path d="M139.03 305.151L24.0356 196.504L25.8215 187.642L138.926 291.215L139.03 305.151Z" fill="#28A6AE" stroke="black"/>
<path d="M243.465 194.5L141.441 302.464L140.362 290.527L242.21 180.616L243.465 194.5Z" fill="#28A6AE" stroke="black"/>
<rect x="131.34" y="47.7066" width="149" height="149" transform="rotate(42.9138 131.34 47.7066)" fill="#5B56F0" stroke="black"/>
<path d="M140.912 275.799L25.9184 167.152L27.7044 158.29L140.809 261.864L140.912 275.799Z" fill="#5B56F0" stroke="black"/>
<path d="M245.348 165.149L143.324 273.112L142.245 261.176L244.093 151.264L245.348 165.149Z" fill="#5B56F0" stroke="black"/>
<rect x="126.578" y="16.4449" width="149" height="149" transform="rotate(42.9138 126.578 16.4449)" fill="#D94A8C" stroke="black"/>
<path d="M136.151 244.538L21.1567 135.891L22.9426 127.029L136.047 230.602L136.151 244.538Z" fill="#D94A8C" stroke="black"/>
<path d="M240.586 133.887L138.562 241.851L137.484 229.914L239.331 120.002L240.586 133.887Z" fill="#D94A8C" stroke="black"/>
</svg>
